<svg viewBox="0 0 340 64" xmlns="http://www.w3.org/2000/svg" role="img" aria-label="Sistema Sanidad">
  <defs>
    <linearGradient id="escudoGradH" x1="0%" y1="0%" x2="0%" y2="100%">
      <stop offset="0%" stop-color="#40916c"/>
      <stop offset="100%" stop-color="#1b4332"/>
    </linearGradient>
  </defs>

  <!-- Escudo pequeño -->
  <g transform="translate(4,4) scale(0.45)">
    <path d="M60 6 L104 20 V56 C104 86 86 106 60 116 C34 106 16 86 16 56 V20 Z"
          fill="url(#escudoGradH)"/>
    <path d="M60 30 C82 34 88 56 78 76 C68 96 46 100 40 96
             C58 92 66 72 62 56 C58 42 46 36 38 40 C46 30 54 28 60 30 Z"
          fill="#ffffff"/>
  </g>

  <!-- Texto -->
  <text x="66" y="30" font-family="Segoe UI, Roboto, sans-serif" font-size="22"
        font-weight="800" letter-spacing="1" fill="#ffffff">SISTEMA SANIDAD</text>
  <text x="66" y="48" font-family="Segoe UI, Roboto, sans-serif" font-size="12"
        fill="#a8dadc" letter-spacing="0.5">Control de avance de labores</text>
</svg>
